/* XPM */
static char *_bd96d457c25400bf886b1ec1327cd3cla0CwGeDfPRTO41K[] = {
/* columns rows colors chars-per-pixel */
"64 85 238 2 ",
"   c #141414",
".  c #1A1A1C",
"X  c #181618",
"o  c #0F0E0F",
"O  c #231D1C",
"+  c #361D18",
"@  c #2B221E",
"#  c #36221C",
"$  c #1E1E21",
"%  c #211F23",
"&  c #1F2023",
"*  c #232224",
"=  c #2A2423",
"-  c #2C2B2C",
";  c #272629",
":  c #362A27",
">  c #2E2E31",
",  c #312F33",
"<  c #333234",
"1  c #36353A",
"2  c #38373B",
"3  c #3B3A3D",
"4  c #3B3738",
"5  c #2F3031",
"6  c #452D27",
"7  c #49332C",
"8  c #463A37",
"9  c #573A35",
"0  c #54362C",
"q  c #673839",
"w  c #6A3631",
"e  c #58443C",
"r  c #4C423C",
"t  c #67453B",
"y  c #794738",
"u  c #66573C",
"i  c #3D3D41",
"p  c #413F44",
"a  c #713C44",
"s  c #3E4044",
"d  c #424245",
"f  c #45454A",
"g  c #49494D",
"h  c #4A4647",
"j  c #564A46",
"k  c #57524E",
"l  c #4D4C51",
"z  c #545355",
"x  c #5C5B5C",
"c  c #5A5756",
"v  c #514F53",
"b  c #674845",
"n  c #77454A",
"m  c #68564A",
"M  c #795646",
"N  c #7A4B51",
"B  c #635B57",
"V  c #785854",
"C  c #6C4F51",
"Z  c #5F605B",
"A  c #6B635D",
"S  c #64625C",
"D  c #776457",
"F  c #75644D",
"G  c #5D5D62",
"H  c #625E62",
"J  c #5F6062",
"K  c #656563",
"L  c #6A6563",
"P  c #6B6A66",
"I  c #656569",
"U  c #6D6C6B",
"Y  c #686868",
"T  c #726E6B",
"R  c #766964",
"E  c #73716D",
"W  c #7B746D",
"Q  c #6B6D72",
"!  c #716F71",
"~  c #6C717B",
"^  c #747372",
"/  c #7B7572",
"(  c #7C7974",
")  c #7C7C7C",
"_  c #75757B",
"`  c #6F706B",
"'  c #834C3B",
"]  c #834A38",
"[  c #8A523E",
"{  c #875A47",
"}  c #955B44",
"|  c #824C54",
" . c #835756",
".. c #834E40",
"X. c #886657",
"o. c #966C59",
"O. c #9B725D",
"+. c #8F6A50",
"@. c #896D65",
"#. c #887568",
"$. c #9C7462",
"%. c #997767",
"&. c #827B75",
"*. c #837D7A",
"=. c #887A75",
"-. c #987C73",
";. c #956F64",
":. c #A17664",
">. c #A37C6A",
",. c #A27A66",
"<. c #A97F71",
"1. c #A16F57",
"2. c #97846A",
"3. c #8A827C",
"4. c #85817C",
"5. c #9A8478",
"6. c #A7826E",
"7. c #AA966A",
"8. c #B29B6C",
"9. c #A78778",
"0. c #AC9878",
"q. c #B49E72",
"w. c #B49E79",
"e. c #B6897C",
"r. c #BAA377",
"t. c #90805C",
"y. c #C3AB7E",
"u. c #7D7D82",
"i. c #777B87",
"p. c #6E7481",
"a. c #817F83",
"s. c #A67F80",
"d. c #7D818A",
"f. c #7D8492",
"g. c #848383",
"h. c #8C8582",
"j. c #8B8B8C",
"k. c #888689",
"l. c #948C8A",
"z. c #968984",
"x. c #9B928D",
"c. c #96918C",
"v. c #878B95",
"b. c #8D919A",
"n. c #989697",
"m. c #918F90",
"M. c #A48B85",
"N. c #A78D85",
"B. c #AB948C",
"V. c #A89589",
"C. c #B49889",
"Z. c #AC9B95",
"A. c #A49C9A",
"S. c #AB9E9A",
"D. c #A69994",
"F. c #B29C95",
"G. c #B29E99",
"H. c #BA9E95",
"J. c #B38B81",
"K. c #ADA19D",
"L. c #A8A19D",
"P. c #B4A39C",
"I. c #BAA49D",
"U. c #B9A698",
"Y. c #B7A58A",
"T. c #989BA3",
"R. c #A19FA1",
"E. c #9EA0A5",
"W. c #ADA4A2",
"Q. c #ACAAAC",
"!. c #A6A5A7",
"~. c #B3A5A2",
"^. c #BAA6A1",
"/. c #B4A9A5",
"(. c #BBAAA4",
"). c #B4ADAA",
"_. c #BAAEAB",
"`. c #BCB1AD",
"'. c #B6B1AC",
"]. c #ACADB3",
"[. c #A7AAB4",
"{. c #ADB1B9",
"}. c #B3B2B3",
"|. c #BCB4B2",
" X c #B4B5BB",
".X c #BABABB",
"XX c #B1AFB0",
"oX c #CBB489",
"OX c #C8B194",
"+X c #C2ACA6",
"@X c #C3B2AC",
"#X c #C9B7A9",
"$X c #C2B5B3",
"%X c #C4B9B5",
"&X c #CBBEBA",
"*X c #C7BBB7",
"=X c #D4BDB6",
"-X c #D1B3A7",
";X c #CAC2BD",
":X c #D5C6BA",
">X c #D7C4A5",
",X c #DFC6AA",
"<X c #BCBDC2",
"1X c #B5BAC3",
"2X c #BDC1C9",
"3X c #BFC6D0",
"4X c #C4C5CB",
"5X c #C8C6C7",
"6X c #D7CBC5",
"7X c #DAD2CD",
"8X c #C8CCD5",
"9X c #CDD2DB",
"0X c #D6D6D8",
"qX c #E4D4CC",
"wX c #E9DBD4",
"eX c #EAD8D1",
"rX c #EDE1DB",
"tX c #F3E4DD",
"yX c #F6E6DA",
"uX c #D7DBE4",
"iX c #CFD6E0",
"pX c #DCE1EB",
"aX c #DFE6F0",
"sX c #E7E6E9",
"dX c #F5EBE3",
"fX c #FAECE4",
"gX c #F7EBE6",
"hX c #FAF2EB",
"jX c #E7EBF4",
"kX c #EDF1F8",
"lX c #F4F3F5",
"zX c #FAF6F2",
"xX c #FBF9F5",
"cX c #F4F6FA",
"vX c #FAF8FB",
"bX c #FBFAFC",
"nX c #F8F8FB",
"mX c #E1DFE2",
/* pixels */
"P K K c Z Z k g k k k Z Z k A W Z Z S K K ` ^ ^ ( ( ( ( 4.4.h.j.c.c.n.L./.`.$X*X.X'.}..X<X2X3X0XsXkXuX9XiXaXaXjXkXcXcXbXbXbXnXbX",
"P P K K Z k Z Z k k k Z Z Z Z ( P S P P ` ` ` ^ ^ ^ ( 4.4.4.h.h.j.c.D.A./.).`.;X;X'.}..X<X2X5X7XmXjX0X9XuXpXaXkXkXcXbXbXbXbXnXnX",
"E U P P K Z k Z z Z Z k S S Z P ( A ` P P ` ` W E ^ ^ 4.h.h.h.l.l.c.L.L.W.).$X6X7X.X}.}..X<X3X9XsXjX8XiXiXpXaXjXkXkXcXbXvXvXvXvX",
"P W E ^ K Z Z Z Z Z Z Z S S P S E ` P ` ` ` ` ^ W ` ( ( 3.h.h.l.l.x.n.L.W.'.*X6X;X.XXX}..X<X5X9XsXuX3X9XiXpXaXaXkXkXcXbXvXvXvXvX",
"P W 4.&.W A P Z P K Z Z P S P P P W ` P T ` ` E ` ^ ^ ( 4.3.z.z.l.D.A.L.W.).*X&X'.'.'.}..X.X5X5XmX5X3X8XiXiXpXaXkXkXnXnXvXvXvXvX",
"P T 4.3.k.( K ` Z P P P P ` P ` P ` ` ` T T E T ` ^ ( W &.4.h.c.l.x.A.L.W.~.|.|.'.'.}.'.}.<X2X7XmX<X3X8XiXuXpXaXjXkXnXnXvXvXvXvX",
"P ` W 3.l.3.^ ` ` ` ` K P P P P P ` E P P E ` ` E W W ^ &.) 3.z.l.x.D.L.L.L.W.).Q.Q.Q.}.}.<X<X0X0X.X2X3X9XiXpXaXjXkXcXbXvXvXvXvX",
"A W W 3.c.c.3.` ` P ` ` ` P ` ` ` ` E ` P T ` ` ` ` ^ ( ( W 4.3.l.x.n.A.L.A.L.Q.Q.Q.'.'.'..X.X0X5X}.2X3X8XiXiXaXjXjXcXbXvXvXvXvX",
"Z P W &.5.L.n.W P ` ` ` Q ` ` ^ T U U E P P P ` ` E ( ( W ( &.3.z.z.c.n.A.A.n.L.Q.'.).'.Q. X<X0X1X1X1X3X3XiXiXpXaXjXkXcXcXbXbXcX",
"k S E &.4.x.c.4.` ` ^ ` ` Q ` ` E E P U ` P U P U U ^ E W / &.4.a.l.l.l.x.n.A.A.'.Q.).}.}.}.5X0X[.1X1X1X3XiXiXpXaXjXkXcXbXbXbXbX",
"Z Z ` ( 4.3.3.4.E ` ` ` ! E Q U ` E U T E P ` ` U E E / / ( ( 4.3.h.h.l.c.x.n.A.L.Q.Q.)..X'.;X2XE.1X1X1X3X9XiXuXaXjXkXcXbXnXnXbX",
"^ z S W 4.4.3.4.&.` ` ` E E Q U ` ! W U ` ` ` U U U E ( W ( 4.3.l.x.x.n.l.A.K.D.L.W.W.Q.'.}.5X}.T.[.1X1X1X8XiXuXpXaXjXkXbXbXnXnX",
") J x ^ *.&.&.3.4.( P ! ! ! ! ! U ! E U U U ` Y ! ! ! W ( ( W 3.3.3.( E &.3.D.S.L.|.'./.'..X2X!.T.[.1X1X1X8XiXiXuXaXjXkXnXbXnXnX",
"d._ x K &.( ( &.&.4.E U ^ ! ! ` U E E U U U ` U U U ! E &.A F A A A m A A R / *.3.L.%X;X|.;X.Xn.E.[.[.[.1X8X8XiXuXpXjXkXnXbXnXnX",
") k.^ x E ( W &.3.3.( U U ^ ! ! T A A E U U U ` U U ` W c j m k m j j c B c A R W 4.x.;X:X;X!.n.T.[.[.1X1X<X8XiXiXuXjXkXcXbXbXnX",
") g.k.K S T W &.3.z.&.( P ! ! ` E B B A E P U ! U U E S r j j j h h h j k k c B A ` 4.5.:X7X;X.X[.T.[.[.1X<X3X9XiXuXaXjXkXbXnXnX",
") d.k.^ P P ` W #.3.4.4.` P ! ! ! P S A P P P ` U U T B r e e r 8 4 8 r h j k x B P E 3.L.:X7X;X5X9X<X X X<X3X8XiXuXaXjXkXnXnXvX",
"( ) 4._ ` ` K P W 4.2.( ( ` U ^ ` E A S A P P T T E R k j e 8 r 8 8 r j e k c c B A R / l.K.:X5X'.2X0XmX0X9X4X8X9XiXuXsXkXcXvXvX",
"^ ^ _ ^ ` K K A P W &.4.&.W ` U ! ! P S F A T P ` P A m r 8 7 9 u V X.D X.@.X.@.@.R P R 4.c./.:X.X}.<X9XsXjXjXsXuX0XuXkXnXnXvXvX",
"U ` ! P P P P P A R W #.=.&.E U ! ` ` A B A R T U A m k 7 e m F X.$.%.>.%.%.-.5.N.M.z.#.W 4.x.%X*X|..X<X5XmXlXjXkXcXjXjXnXnXvXvX",
"Q ` Y Y U Y Y K P P ` W &.&.( ` ` ! U ` S m A ` P m e 7 e { X.O.%.%.>.>.6.>.6.9.V.C.I.:XV.R 3.n.|.}.}.<X4X4X0XjXjXsXcXcXnXnXnXnX",
"Z Y Y Y K K Y P K S P W ` ( ( E U U ` ` D B A ` j 8 7 e X.X.o.:.>.>.>.6.>.<.6.9.e.V.H.=XqXK.( h./..XXX X<X5X5X0XsXkXsXsXlXnXnXnX",
"P Y K K J J Y Y ` P A P W W ( E U U ` ` ` A ` A 8 : 0  .+.o.O.:.,.>.,.>.>.>.2.6.9.e.0.V.+XqXz.3.L.'.].]. X4X5X9X0XlXnXsXlXbXcXvX",
"` ` ^ Y K J J Q ^ ` ` A ` W t.&.E U P ` ` ` ` B : : t +.o.o.$.1.$.:.,.,.,.>.>.6.6.9.9.J.B.U.K.3.L.}.!.]. X<X4X5X0XsXnXvXlXcXcXlX",
"s 4.b.f g Z P ~ ~ u.) ` ` ` ` ( &.T P U U ` E g : : M O.o.o.1.:.:.:.:.:.:.,.>.>.6.9.9.9.B.B.D.x.A.).Q.!.}..X2X5X9XuXlXcXsXlXnXlX",
"n.3 - .   . < Z ) b.b.) ` ` ( ( &.W T U ! ` E k @ 6 F $.O.O.,.,.:.:.:.$.$.,.>.<.6.9.9.e.V.V.M.x./.$XXX!.]. X.X<X8X0X0XuXsXlXjXsX",
"s * . X X       5 k ^ d.j.4.` ( &.W W T ! ! / c # e o.$.O.:.,.,.:.$.$.$.$.,.>.>.>.9.9.e.e.N.V.5.(.&X XQ.]. X X<X<X5X4X9X0X9X0XuX",
". . . . X . . .   o . s ` j.c.g.&.3.&./ E ! / S : D %.$.:.%.$.O.o.X.o.o.;.$.o.;.;.%.5.N.9.M.V.5./.%X|. X'.].]. X.X<X4X0X4X4X9X9X",
". $ . . . . . X   . . o   * k g.c.h.3.&.W E ( ^ 8 #.-.$.;.F b t m M V {  .{ D V V B D #.5.9.V.V.~.;X.XXXQ.].].}. X<X4X4X1X<X8X8X",
"& $ $ $ . . . . . . . .     o   4 ( 3.4.4.( ^ *.e -.9.X.0 # + # 6 0 y M { M t e 9 r e j V 2.5.+XP.6X7X.XQ.Q.Q.]. X<X8X1X}.1X<X3X",
"& * $ & . . . .   .       . .   X T &.z.3.h.( ( B 5.9.t 6 7 0 6 6 0 e M M t t e e b b m B R V.#X*X0X7X5XR.Q.!.[.XX1X4XR.[.[.1X1X",
"* & & . $ . . . . . .   .   .   < 4.( 3.h.x.c.4.A =.C.V M b e 7 6 0 t X.o.M t b e k V R R @.V.#X%XdX7X7XXXR.R.R.[.%X!.T.[.[.[.[.",
"- * * * * . O . . X . X .   . o f 4.^ 4.3.D.A.l.L R H.#.C 7 # # 7 7 q +.>.{ 9 e 9 p j m R @.V.(.P.0X7X7X}.n.R.E.!. Xb.n.T.T.E.[.",
"- - * * * & & . . .   . . X . o c 4.E ( x.n.D.A.#.D C.{ t 0 # : 7 0 t O.$.X.t 9 j 8 8 b C @.V.U.K.:X:X0X;Xn.R.n.].n.d.v.b.b.T.T.",
"- - = * * * . & . . . X   . .   J d.^ ( z.D.D.B.@.@.9.+.{ t 9 q 0 q { :.:.O.M t t b C V X.#.V.U.U.&X.X;X.Xn.n.n.!._ d.k.v.v.v.v.",
"5 - - * * * & & O . . X . X   & ` 4.( W 4.x.n.s.@.C.9.%.X.M b b t X.;.>.<.%.X.V b m V X.@.%.C.=XC.+X$X'.6XQ.m.!.k.Q _ _ i.i.f.f.",
"5 5 5 5 ; * * & & . . . X X X 5 ^ j.) ^ *.a.B.@.;.C.<.$.;.@.;.-.B.+X+X#X+X+XF.N.#.X.V o.%.-.OX,Xe.e.=X).5X;Xm.T.I I Q Q ~ _ i.i.",
"5 5 5 5 ; * * & & . & . . @ ; 3 4.T.4.^ _ a.M.-.#.H.+XH.+X-X=X=X*X#X*X@X+X@X+X+X#XU.F.N.9.-.Z.-Xe.e.*X|.|.5XR.) G I I Q Y Q Q Q ",
"3 < 5 5 5 ; * * & . & & ; 5 s v j.!.d.` Q u.v.s.;.=X:X=X=X&X&X*X#X*X%X$X@X@X@X_.(.#X@X#X@X+X(.#X9.J._.}.).7X!.c G G J I I I Y Q ",
"s 3 < 5 5 5 ; * * * * 5 3 < ! U m.R.d.` Q _ a.m.s.=X:X6X&X&X&X&X&X&X%X@X_._._.@X`.+X_.`.`.$X;X7X=XZ.).|.`.Q.Y l z v z z G G G G ",
"s 3 < 5 5 - - ; - 5 3 z ` f x ^ n.E.u.K I I _ k.@X6X$X&X&X&X$X$X%X%X$X$X_.(./._./._.+X_.@X|.$X;X6XW.h.L x h h l l l l v z G G z ",
"s 3 3 < 5 1 1 < f ^ g.` ) z f U ` n.d.Y K Y I j.6X:X&X%X*X*X$X$X@X$X$X$X_.(.~.~.^./._._.`.|.%X6X7XB 2 p p f f f f g g l v v v l ",
"s 3 1 3 s s s p.n.n.n.Y P Y s Z j.^ u.( _ ^ Q W.5X&X*X%X$X|._._._._.$X_.~.K.G.~.W.)._._.`.|.;X7XwXn.4 p p i p d f f f g f l g l ",
"s s 1 s Z ` T.<XR.) ! Z c U J 1 ( j.n.E.!.j.) '.*X&X&X|.|._._.)._._._./.P.R.S.R.W.W._._.|.|.6X6X7X5Xp i i i i p i f p f f f f f ",
"s s s Y Q.8X!.c.^ Y K Y h z *.n.B I x f g.XX|.|.).@X&X|.$X$X&X;X5X6X$X_.~.$X@X_._.(./._.`.@X;X;X;X7X/ < i 3 2 i 3 s s d p f p f ",
"s s s v.iXQ.4.P ` Y K I ^ I j.T.g     o   - P !._.G._.(._._._._.$X*X$X$X$X<X&X&X*X%X$X_.`.`.|.;X7XrXk.> 2 1 2 2 3 3 3 8 p p p i ",
"s s ` ].u.u.) ` K P g..X5X!.i     . $ $ . X o . R._.K.~.Q./.~.~.~.~.~.G.G.G.~.G.R.~.~.~./.`.`.7XdX7Xg < 1 1 1 1 3 2 2 3 3 i i i ",
"s s T. Xg.^ ` ) k..X5Xj.i X   $ . $ . $ . . * o R &X_.W.R.~.R.~._.).~.A.R.G.G.R.G.P.S././.).;X7X7XE 5 2 < 1 1 1 1 1 4 2 2 2 3 i ",
"s Q 2XT.j.g.P E.<X4.4 . . & . . X $     $ $ X X ; W.|.$X/.R.S.S././.P.D.S.S.K.P.S.S.L.K.W.`.%X6XL.- < < 5 < 4 < 4 < 1 1 1 3 3 3 ",
"s I Q.d.f.u.j.Q.Z ; * * * . & . $ X $ $ $   $ $ o z |./.%X).R.K.W./.K.D.S.~.S.K.D.D.L./.|.|.5X}.8 5 < < < < < < < 4 1 < 1 3 3 3 ",
"s s ) f.u.` g.( k 3 * & & & . . X $ . . X $ $ $ $   / ).~.|.(./.L.W.~.A.S.S.S.L.W.W._.$X`.%X'.8 ; < 5 < < < < < < 1 1 1 1 1 1 3 ",
"s s K n.u.^ ( P Z 3 5 * & & . $ $ $ X . $   $   . . O l.~.W.).).W.~.P.K.K.L.L./.).`.|.`.|.W.8 ; < > 5 5 5 < < 5 < < 1 4 2 1 3 i ",
"s s s n.f.( ^ P K z 3 ; & ; 5 & $ $ . X . . . . . $ X = x.S.P.K.S.S.S.D.D.P.K.P.(.`.^.W.n.8 ; - > > > > < < < < 1 < 1 1 3 3 i i ",
"s s s ` n.^ ( 4.` U g 5 ; & ; & * * & . . . $ . . . O O =.F.Z.K.B.V.D.V.D.Z.K.U.^.P.U.(.r @ 5 - ; > > > < > 5 < < 1 2 1 1 i 3 i ",
"s s 3 5 K n.u.f.) U _ f 1 & $ $ * * * $ X X . . $ $ X : N.5.9.C.D.V.x.V.V.Z.Z.K.P.Y.9.C.m * - - > > > > - < < < 1 1 2 i 3 i i i ",
"3 3 3 3 5 z n.) _ ) ` ~ f > ; $ $ * * * $ . . . . O   V w.$.X.@.-.N.B.B.Z.Z.C.N.5.%.%.C.D @ - - > > > > < < < < 1 1 2 3 3 i i s ",
"1 1 2 1 2 ; g b.u.d.g.I ) h > ; & * ; ; * . X . @ X 6 9.9.O.{ M M M #.5.9.5.X.F { +.t.6.2.# : 5 > > > > , < , 1 1 1 3 3 s s d f ",
"< 1 1 1 < 1 - i k.g.3.3.L / 8 > ; & * ; ; - O   o # @.9.6.O.+.{ { { y M y M M } +.o.,.,.0.e = > > , > , < < 1 1 1 1 i i s d f f ",
"< , < < 1 < 1 , 1 ( 5.N.-.F =.j : @ O * - . @ j &.#.-.,.,.o.{ { y M M y M { { +.+.O.,.O.6.>.# 5 , , > , , 1 1 1 3 3 i i s f f f ",
"5 > < < < - = = @ m 0.>.6.,.9.5.V j 7 O : R _.&X#XI.V.9.2.O.;. .X.M M M M M { X.+.O.O.:.t.Y.#.= ; < 1 1 , 1 1 2 3 i i i f s s f ",
"> - 5 - = p C M.e.1.1.1.1.1.1.1.1.>.>.-.G.&X@X^.P.P.H.H.B.J.N.s.-.-.-.-.5.-.-.9.9.9.C.0.V.0.=X/.( 4 - < 2 1 2 2 i i i i s f g l ",
"> < ; 4 Q.qXrX=X:.} 1.} [ } } [ } { 9.OXG.B.F.G.G.G.F.F.B.F.B.N.M.M.M.M.N.M.M.V.F.-XeXyXyXyXyXzXbX0Xg.8 - , 1 2 i i i f f l l l ",
"< * k $XeX6X-Xo.} } } } [ [ [ [ ..{ C.B.F.G.G.G.G.G.F.F.G.F.G.F.B.B.B.N.N.N.N.G.@X:XqXqXyXyXhXhXzXbXbXsXR.H i , i i i f l g G v.",
"O T qX=X-X-X:.} } } [ [ [ [ [ [ y J.H.F.G.P.G.G.G.I.P.I.I.I.^.^.^.~.G.Z.S.F.^.6XyXyXfXhXhXhXzXxXbXzXlXbXbXvX9XR.p.G v g i i z T.",
"( qX$X+X-X<.{ } [ [ ] [ [ ] ..y <.I.F.G.I.P.G.P.^.I.+X+X+X-X+X^.^.^.+X+X^.+X:X6XqXeXwXtXyXdXhXhXzXxXnXnXcXxXbXbXbXnXsX0X5X}.j.Q ",
"7X&XH.-XJ...] [ [ ] ] [ ] ] w @.I.G.G.I.G.^.^.^.G._.W.a.a.a.B._.^._.a.=.$X:X:XqXqXqXeXeXwXyXrXdXzXxXxXnXxXcXnXxXzXbXbXbXbXbXbXcX",
"&X+XI.+X+.] ] ..] y [ ] [ y t %.I.G.P.P.^.G.G.^._.s.p f G p p m.|.*.8 L &XqXqXqXyXeXeXwXwXrXdXdXhXzXxXxXbXcXxXxXzXfXhXhXzXxXzXzX",
"$XH.+X;.y w ] ] y ' ] ..' w V H.H.P.P.~.^.~.~.+X! p i f G l i H *.4 z `.+XB.Y.+X-X6XwXyXyXrXyXdXdXzXxXxXxXnXxXxXxXhXdXtXdXhXhXhX",
"+XF.C.n w y ] w ] ] ..' w a N.^.P.P.P.^.P.(.~.I 8 x.n.R ! I p p < B (.D.#.C.oXOXY.0.Y.Y.:XyXdXyXdXfXxXxXcXxXxXbXxXzXgXgXrXgXgXrX",
"G.B.;.0 w t y ] ..' ' w a ;.+XP.P.^.^.P./.A.j p a.~.~.^.^.$XI i ( ).G.D w.r.r.oX>X-XU.U.#X>XyXyXhXzXxXbXbXbXxXxXzXzXhXgXtXtXhXgX",
"B.M.@.9 : 6 0 t y w w n N H.^.^.^.P.P.P.S.v 8 a.~.G.G.^.~./.G p A.(.W t.r.8.q.r.Y.0.Y.>X>XOX:XdX*XQ.].4XpXcXbXbXbXxXzXgXgXtXfXfX",
"M.M.@.: # O O + w a a a -.@XP.^.~.I.P.~.U , &.(.G.I.^.^.~.G.p v D.U.F 0.r.q.q.y.+.r.U.2.>X:X#X'.E u.d.k.j.b.!..X0XlXvXvXtXrXgXfX",
"s.D.R @ : ; + : a a | | ^.^.^.^.I.~.^.l.8 l R.I.^.G.I.P.(.z.i H P.V.F r.w.r.r.y.w.t.>XY.t.>X>XL.( g.k.v.T.v.v.v.v.T.3XjXzXtXwXfX",
"z.M.C = ; = : a N a n s.+XG.I.P.I.~.W.G 1 a.^.G.G.I.I.G.(.a.8 _ ^.Z.F w.q.r.r.r.Y.Y.5.U.x.t.3.:X5Xn.a.i.u.v.v.v.b.b.v.b. XsXrXrX",
"M.-.8 % ; 8 a | a N @.@X^.+X(.^.G.~.s.i p S.R.G.G.I.G.~.^.R p l.K.U.F 7.8.q.q.q.r.r.OXY.V.:X:XyXhXhXrX0X5Xb.v.v.f.b.T.T.v.R.qXwX",
"s.R - % v Q N | a a ;.s.M.z.s.N.I.~.*., c ~.G.G.G.~.G.(.~.v p A.K.U.&.m r.7.8.8.8.q.r.oXU.0.eXfXfXgXfXhXbX].p.a.f.f.i.k.v.a.n.7X",
"R j + B M.C  .N a a a a a 9 q a C G.I , R G.G.G.G.G.G.+Xa.p H G.L.U.(.F D r.7.7.8.q.r.r.>XoXY.yXfXfXfXtXhX$X_ i.f.i.n.0XXXA.l.&X",
"8 : p (.N N | | | | | | N q | a b W.G , H ^.G.G.I.G.~./.G p / _.L.#.R 0.F D w.7.8.q.r.y.oX,XY.`.hXtXfXdXhX6Xi.i.i.i.a.sXzXgXdXdX",
"@ @ D.z.C | | | | N N a a a | a -./.I 1 H G.G.G.G.G./.a.i i s._.&.D 7.F Y.F F 7.8.8.r.y.oX>X>X0.yXfXyXfXfXeXu.i.i.f.~ R.hXtXrXfX",
"= R _.V N | | | N N a N 9 a a | I.P._ 1 p T.G.S.G.~.) g i c ~.W.F t.Y.F W '.t.u 7.8.r.oXoXoX>X0.:XhXtXtXfXrXa.i.i.f.i.u.wXgXrXwX",
"9 ^.M.C N C a a p 7 0 7 9 N 9 N.^.~.x.p i Q ~.^.W.! p p G S.~.G.F t.0.0.u c.>Xm t.q.r.y.oXoX>Xq.+XgXtXtXtXgXm.Q i.p.i.Q `.yXrXwX",
"-.+XR j a 9 j C | @.R R V a V P.G.K.~.H 1 i H a.I 8 i G R.^.I.I.D t.0.0.t.u 3.u 2.q.r.y.oXoX>X8.^.tXrXtXrXhX/.Q p.p.p.Q ( rXqXqX",
"~.D.j C U s.Z.^.+X+X(./.^.G.P.K.G.I.G.S.C i 2 2 , p a.~.(.(.^.^.D D 7.7.0.t.u t.q.8.r.y.oXoX>X2.+XtXeXwXeXtX*XI ~ p.~ ~ P 5XwXqX",
"~.Z.D././.).^.^.G.G.P.G.G.~.G.U.P.G.G.~.R.*.z l R A.+X^.^.^.^.~.&.F 7.7.7.8.q.q.8.r.r.y.r.oXY.F :XqXqXeXeXeX6XU Q Q ~ _ I L.wX6X",
"I.(.^.P.~.I.^.^.^.^.G.~.P.P.P.K.G.P.P.G.G./.S.D.~.S.P.P.(.(.~.P.z.e 7.7.7.7.7.7.8.r.r.y.y.oX#.2.qX6XqXqX7X6X0X*.I p.~ p.I g.qX6X"
};
