/* XPM */
static char *_5798_0a16e9e18581c582f5c31754556fbd9946da4cedb12ed8c8c86fc8ea857b158e[] = {
/* columns rows colors chars-per-pixel */
"44 50 225 2 ",
"   c #1D1D1D",
".  c #342A0D",
"X  c #363107",
"o  c #3A3506",
"O  c #3E3D03",
"+  c #3A330B",
"@  c #3E3D0B",
"#  c #2A2A1F",
"$  c #362B17",
"%  c #363417",
"&  c #3A3313",
"*  c #3D3D13",
"=  c #3C3C1D",
"-  c #242424",
";  c #2A2A26",
":  c #2B2B2B",
">  c #342E22",
",  c #333323",
"<  c #3C3B24",
"1  c #32312E",
"2  c #38342D",
"3  c #3C3C2B",
"4  c #333333",
"5  c #383632",
"6  c #3A3933",
"7  c #3A3A3A",
"8  c #611C1C",
"9  c #423B09",
"0  c #5D390F",
"q  c #453B12",
"w  c #7C240F",
"e  c #663E00",
"r  c #763E00",
"t  c #4E3935",
"y  c #662121",
"u  c #6B2626",
"i  c #6F2A2A",
"p  c #732D2D",
"a  c #773232",
"s  c #434301",
"d  c #4B4A01",
"f  c #47450A",
"g  c #514B05",
"h  c #555200",
"j  c #595500",
"k  c #5D5B02",
"l  c #5E580D",
"z  c #434213",
"x  c #474518",
"c  c #514E1A",
"v  c #5A5816",
"b  c #6A450D",
"n  c #724B00",
"m  c #6D5700",
"M  c #625E01",
"N  c #7B5200",
"B  c #635F17",
"V  c #656100",
"C  c #696507",
"Z  c #6E6B01",
"A  c #7B6100",
"S  c #716D01",
"D  c #757300",
"F  c #777506",
"G  c #7C7A00",
"H  c #68661A",
"J  c #726E1C",
"K  c #777415",
"L  c #474625",
"P  c #504E20",
"I  c #595726",
"U  c #464638",
"Y  c #585739",
"T  c #6E5528",
"R  c #666429",
"E  c #767423",
"W  c #6A6936",
"Q  c #757333",
"!  c #7B7A35",
"~  c #76743C",
"^  c #444443",
"/  c #4C4C4C",
"(  c #5D5C47",
")  c #525252",
"_  c #5C5956",
"`  c #5C5C5C",
"'  c #705550",
"]  c #66664A",
"[  c #76754A",
"{  c #68685A",
"}  c #78775D",
"|  c #646464",
" . c #6D6D63",
".. c #6C6C6C",
"X. c #7D7D61",
"o. c #727272",
"O. c #7B7B76",
"+. c #7C7C7C",
"@. c #8B0000",
"#. c #930404",
"$. c #9A0000",
"%. c #A30000",
"&. c #AA0000",
"*. c #B20000",
"=. c #BC0000",
"-. c #BE0A0A",
";. c #BA1616",
":. c #983838",
">. c #AA3434",
",. c #BA3030",
"<. c #C30000",
"1. c #C80000",
"2. c #CF0808",
"3. c #D30000",
"4. c #DD0000",
"5. c #CA1515",
"6. c #E00000",
"7. c #ED0101",
"8. c #EA1616",
"9. c #C72424",
"0. c #F02424",
"q. c #FC2020",
"w. c #E13333",
"e. c #FC3030",
"r. c #935F01",
"t. c #8E4E12",
"y. c #807F03",
"u. c #AB7711",
"i. c #8F6D2B",
"p. c #D37600",
"a. c #81554F",
"s. c #885858",
"d. c #9C5A5A",
"f. c #B34040",
"g. c #807E57",
"h. c #A76259",
"j. c #896E6E",
"k. c #9A7575",
"l. c #B66C6C",
"z. c #A67A7A",
"x. c #DB4141",
"c. c #C85757",
"v. c #FC4040",
"b. c #848400",
"n. c #888700",
"m. c #8C8B00",
"M. c #918900",
"N. c #939300",
"B. c #9B9B00",
"V. c #96960C",
"C. c #848414",
"Z. c #85841B",
"A. c #999914",
"S. c #A59D05",
"D. c #A5A200",
"F. c #AAA500",
"G. c #AFA800",
"H. c #A8A40E",
"J. c #B4AC01",
"K. c #A6A31A",
"L. c #888728",
"P. c #928F29",
"I. c #99992A",
"U. c #888839",
"Y. c #999933",
"T. c #AEAA33",
"R. c #AAA83B",
"E. c #C3BD16",
"W. c #DE8028",
"Q. c #EF9D3B",
"!. c #E6B029",
"~. c #E7C800",
"^. c #888747",
"/. c #9B9B4C",
"(. c #888756",
"). c #989859",
"_. c #A8A54A",
"`. c #878664",
"'. c #998961",
"]. c #989766",
"[. c #878777",
"{. c #9A9A79",
"}. c #A8A765",
"|. c #A4A472",
" X c #FAAB62",
".X c #F4A16D",
"XX c #E3CB50",
"oX c #838383",
"OX c #8B8B84",
"+X c #8B8B8B",
"@X c #9C8181",
"#X c #979688",
"$X c #959594",
"%X c #999993",
"&X c #9B9B9B",
"*X c #B38484",
"=X c #AA9090",
"-X c #A8A889",
";X c #A2A298",
":X c #A3A3A3",
">X c #AAAAAA",
",X c #B9A7A7",
"<X c #B6B6AA",
"1X c #B3B3B3",
"2X c #BDBDBD",
"3X c #D59F9F",
"4X c #F48E8E",
"5X c #FC9E9E",
"6X c #C0BF9A",
"7X c #C8B8B7",
"8X c #F6BEBA",
"9X c #F6DDAB",
"0X c gray76",
"qX c #CCCCCC",
"wX c #D6C4C4",
"eX c gray84",
"rX c #DADADA",
"tX c #E0C2C2",
"yX c #EFC1C1",
"uX c #F9F8CA",
"iX c #E5E5E5",
"pX c #ECECEC",
"aX c #FCE7E7",
"sX c gray96",
"dX c gray99",
/* pixels */
"O O . X 9 o . o d 9 9 d f q ^ 3 z 3 3 1 4 U 3 3 L 3 3 3 4 1 @ + s + s O O O o % o O X & ",
"h h k s d s L j /.F.D.D.D.K.2XN.J.F.E 3 ..:XY.I.Y.N.y.Z.` , ^ R M S Z k Y P x ) c d j I ",
"S V S Z (.Z.) H <XD.S.D.J.].).].B.D.{ 3 >X>X{.].#Xm.n.U.R , ^ K D.D.F.K.1X>XC.E.F `.`.J ",
"G.B.K.1X X#X) I <XN.N.F N.[.'.$XG n.Y 3 :X:X%XU.$X^.Z ~ D % h n.J.G.S.qX_.J.J.uX!.B.b.B.",
"+XY.D.!.9X X~.p.=.=.=.=.=.=.=.=.*.=.<.=.=.=.=.=.=.<.=.=.=.=.=.=.=.=.=.=.*.~.XX9X~.Q.#X%X",
"$X].M.r.r.u.0 w $.%.%.&.*.*.&.%.&.=.5.l.i l.l.l.y c.9.5.<.*.&.$.$.$.$.%.&.m r.W.i.i.[ {.",
"$X$Xy.Z C 6 : u &.&.*.=.<.<.<.*.*.4.q.tX/ 2X0XrX7 5Xv.e.7.3.<.&.$.$.&.*.=.j V m g.[.$X+X",
"+X$XC.~ ) 4 4 u &.&.&.=.<.1.<.*.*.6.q.tX) 0X0XrX7 5Xv.e.7.4.=.%.$.$.%.*.*...C k g.j.+X+X",
"....I ^ 4 1 1 i %.&.&.=.<.1.<.&.*.4.q.tX) 0X0XrX7 5Xv.e.7.2.<.%.$.$.%.*.=./ C D ] ....| ",
"7 4 4 4 : 4 2 p %.&.*.=.<.1.<.*.*.4.q.tX) 0X0XeX7 5Xv.e.7.4.=.%.$.$.&.*.*.4 x L ^ 7 6 7 ",
"1 * 1 4 s + 7 a &.%.&.=.<.1.<.*.*.6.q.tX) 2X0XrX7 5Xv.e.7.4.=.%.$.$.%.*.=.; ; ; ; ; ; ; ",
"7 7 q = s z 6 p &.&.*.=.<.1.<.*.;.w.2X1X..0X0XeX` qX0X.X0.4.<.%.$.$.&.*.=.: 4 s x 3 @ 7 ",
"+.+.E Z Z v 7 u &.%.*.=.<.1.1.*.j.oXoX+.qX0XoX0XiX+XoXoXyXx.=.%.$.%.&.*.=.) ..g.K Z D } ",
"0X0XG.D.N.~ 7 y &.&.&.=.<.1.h.*Xo.7XpXiXqXo.- ` pXdXpX0X) wX;.%.#.$.&.*.=.Z.|.T.D.D.F.6X",
"R.R.B.F.B.[ 7 8 &.&.&.=.<.9.{ : 0XpXpXrX&X-   - eXdXpXpXpX- :X%.#.%.%.*.=.y.n.B.F.B.F.-X",
"].#Xm.B.B.! 7 8 &.&.&.=.<.2X+.1X0XpXpX1X:   - :XpXdXpXpXpXeX7 =X#.$.&.*.=.R ! N.D.N.N.n.",
").].B.M.B.Q 7 8 &.&.&.=.c.| :X1X0XpX0X4     oXeXpXdXpXpXpXrX+X..z.$.&.*.=.+.~ ].m.b.n.G ",
"H.|.m.m.b.R 7 8 &.&.&.9.` 2X0X1X0XpX^     +.0XrXpXdX` &XpXrX0X+.oX$.&.&.=.o.Q A.N.b.m.y.",
"A.].-XM.y.| 5 8 &.&.*.f.` qX0X1X1X^     ) 2X0XrXpXoX  4 qXeX0X+Xo.k.&.*.=.o.[.b.n.%Xy.K ",
"[.[.[.P.! Y X 8 &.&.&.&X&XqX0X1X&X4     7 1X0XrX$X-     7 1X0X>X7 k.&.*.=...E N.D [.K ^.",
"_ ` | Q J h 3 _ @Xz.*X&X$XqX0X1X0X0X:   - ) 0X+X-         ^ 1X>X7 ;Xz.*X*X7 k V H ) H ( ",
"^ / 6 = $ q 1 : -   -   $XqX2X1X0XpX>X-     7 -     eX4     7 >X$X          - - : 1 7 ^ ",
"4 6 7 ^ L U _ ..:X>X1X2XqX$X4 $X0XpXpX+.-       - :XpX1X:     / $X&X>X1X1X% < q & , : : ",
"| +XL.U.m.Z.! o.>X:X1X0X$X:   4 &XpXpXiX..      7 sXpXpX>X:     oX&X>X1X1XC Z Z J L ^ ^ ",
"X.K.B.N.n.N.y...>X>X1X2X2X7     7 iXpXrX^       - 2XpXpXpX+X  ^ $X&X>X1X1XS G B.N.V.` ) ",
"`.m.N.y.K n.y...$X$X&X>X0X2X4     ^ eX)     4     4 eXpXpXeX| >X$X+X$X&X:Xj b.n.m.b.| ) ",
"X.B.N.L.%XM.S / _ ) ` ) &XqX$X:     4     / >X^     7 qXpXeX0X>X..) ` ` ` j Z G K U.` ^ ",
"X.N.m.(.I.N.A Y >.>.>.&X$XqX0X+X-       ^ >X0X2X4     ) pXeX0X>X7 @X>.>.,.j ~ S Q Q ` / ",
"X.N.b.b.n.b.Z i &.&.&.&X&XqX0X1X+.      2X2X0XrXqX      0XeX0X>X7 k.&.*.=.j [ S Q +.M 3 ",
"X.Z.n.m.n.n.D i %.&.*.,.) qX2X1X0Xo.7 1XqX0X0X2X7     $XpXrX0XoXO.d.&.*.=.g h M V V @ @ ",
"+.;Xb.D b.b.Z i &.&.&.;.j.+.2X1X0XpX1XrXqX2X1X^     +XiXpXeX0X| +X$.&.*.=.$ X l s = 2 < ",
"`.Z.N.(.b.D S i &.&.&.*.5.:X+X1X0XpXpXiXqX0X/     oXpXpXpXeX/ &X:.$.&.*.=.g j Z {  .U U ",
"D b.L.&Xy.S Z i &.%.*.=.<.,XO.:X0XpXpXrXqX_     / sXpXpXpX0X^ d.$.$.&.*.=.b.N.B.m.b.| / ",
"E P.&X{.Z F H y &.&.&.=.<.5.j._ :XpXpXrX1X7   / iXdXpXpX&X| z.&.$.$.&.*.=.G M.F.F.L._ ^ ",
"K I.^.{.S E ) 8 &.&.&.=.<.1.;.f...` pXiXqX&X^ 2XpXdXiX| :X3X-.%.$.$.&.&.=.M n.m.].O.( U ",
"( `.C.+XS S Z 8 %.&.&.=.<.1.<.&.l.iX- ; qX2X2XrXeX: 4 rX8.2.=.%.$.$.&.*.*. .G D &XoXV 3 ",
"( Z.b.[ } Z 1 y &.&.*.=.<.1.<.&.*.6.8XrX/ 0X0XeX7 aX8Xe.7.4.=.&.$.$.&.*.=.{ C K OXK k 3 ",
"/ ` D I c c 4 y &.&.&.=.<.2.<.*.*.4.q.tX) 0X0XrX7 5Xv.e.7.6.=.%.$.$.&.&.=.V S %X+XC.I 6 ",
") / y.I @ v 4 y &.&.*.=.<.1.<.&.*.4.q.tX) 2X0XrX7 5Xv.e.7.4.=.%.$.$.&.*.=.( Z +XOXX.l 3 ",
"^ ^ B.G n.C 7 y &.&.&.=.<.1.<.*.*.4.q.tX) 0X0XrX7 5Xv.e.7.4.=.&.$.$.&.&.=.{ V +.OXK Y 5 ",
") L.J.J.G.P.W :.%.&.*.=.<.1.<.*.*.6.q.tX) 0X0XrX7 5Xv.e.7.3.=.%.$.$.&.*.=.Y V [ D S M 3 ",
"` R.J.R.J.G.B.t.&.&.&.=.<.1.<.&.*.4.q.tX) 0X0XeX7 5Xv.e.7.4.=.%.$.$.&.*.=.d j S Z h 3 7 ",
"| R.J.}.J.F.n.h.%.&.&.=.<.1.<.*.=.4.q.tX/ 2X0XrX7 5Xv.e.7.4.<.%.$.$.&.*.=.. o s + + < U ",
"| T.J.}.G.H.b.d.&.&.&.=.<.1.<.&.*.4.q.tX) 0X0XrX7 5Xv.e.7.3.=.&.$.$.&.&.*., + s s U z z ",
"` |._.)./._.b.d.@.#.@.&.=.=.&.$.$.2.8.7X^ >X>XqX: 4Xe.8.4.<.&.#.@.@.$.&.%.k c V V M h j ",
"_ +X#X}.:X/.F '.A b ' ' e s.T b e a.a.j.` ..` ^ : T N t.r n a.t 0 n n N n M Z {.{.A.I d ",
"/ ) ` ` S R _ ` H ^ U U h j h j x : 4 : 1 1 1   ; x h h O.j  ./ g v R l W O.D ;X^.C.` / ",
"/ 7 4 1 * o + % * X o q q j 9 q f $ : > ; : # & > P M W ..! [ / H E L.K U.`.F `.C.y.v ) ",
") / / 7 ^ z L = % O % 4 z O 4 k = 4 4 < 1 4 < % = < = = ^ P L 4 g c B C c h M c P M x ) ",
"7 7 7 7 7 = 7 * 4 6 7 * 6 6 7 k 6 7 6 7 6 7 7 6 @ * @ = O 7 7 4 @ @ z s = O & @ O 3 6 7 "
};
