/* XPM */
static char *e8fd058bd1484738e13090363dfbb242jmd1YjPMR4JEOgeU[] = {
/* columns rows colors chars-per-pixel */
"64 55 80 1 ",
"  c black",
". c #020202",
"X c #040400",
"o c #060606",
"O c #0B0B00",
"+ c #0C0B00",
"@ c #0F0F00",
"# c gray4",
"$ c #0B0B0B",
"% c #0C0C0C",
"& c gray5",
"* c gray6",
"= c #131300",
"- c #1A1900",
"; c #1C1B00",
": c #1C1C00",
"> c #1F1E00",
", c #101010",
"< c #151515",
"1 c #161616",
"2 c #191919",
"3 c gray10",
"4 c gray11",
"5 c #232200",
"6 c #252500",
"7 c #3B3B00",
"8 c #3D3D00",
"9 c #202020",
"0 c gray13",
"q c #232323",
"w c gray14",
"e c #272727",
"r c #282828",
"t c #2A2A2A",
"y c gray17",
"u c #2D2D2D",
"i c gray18",
"p c #2F2F2F",
"a c gray19",
"s c #313131",
"d c gray20",
"f c #373737",
"g c #393939",
"h c #3A3A3A",
"j c gray24",
"k c #3F3F3F",
"l c #474400",
"z c #4C4900",
"x c #514D03",
"c c #514E04",
"v c #565200",
"b c #535006",
"n c #585400",
"m c #5C5800",
"M c #5F5F00",
"N c #646000",
"B c #6B6700",
"V c #706C00",
"C c #736F00",
"Z c #767300",
"A c #747400",
"S c #797700",
"D c #7E7E00",
"F c gray25",
"G c #414141",
"H c #434343",
"J c #444444",
"K c gray27",
"L c #464646",
"P c #484848",
"I c gray29",
"U c #4C4C4C",
"Y c #848400",
"T c #8C8C00",
"R c #939300",
"E c #979700",
"W c #929206",
"Q c #9C9C00",
"! c #949408",
"~ c #A9A300",
/* pixels */
"kkkkFPPUUPKy ffPPIFIPIIIUUPUIIfe JhUPUUUUKIKPFFy kKFUPs whhKFUPh",
"hhkFkKKkKPfw whPJhkFFPPPPPUUIfd4 fFUUPIIFhhFFPfq hhFPks 0kshFPkf",
"kffkFFfffFhf skPIkPJfJFPPPPKGddq fJIKPFPfFFKKPhd hFUKks fKhFPksp",
"hffkhkpfshfy fhFJFPPJPFJFJdddfFf FKPPFhhFPKKFPsd fhKFFf yhhFKfhy",
"hyspsypkffyy hfPKPPUPUFfFfhFPPId hJPFhJJKKPKhFas fkkKhs yshhhp0y",
"spyppfhFhh44 WW!WWWWWWWWWWWWWWWTTWWWWWWWWW!!WWTWTWWshsy 44ssywpp",
"hfyfhKkKff40 Q OOOOO@OOOoOOO@OOOOOOOOOOOOOOoOOOOO Qppw3 4ywyhpfp",
"kfffkkfksf44 E ~QEEEEQQQQQQQQQQQQQQQQQQQQQQQQEEE~ Y%%#o wpysffhp",
"kffhkhfksh04 Y YRYYYYRRRRRRRRRRRRRRRRRRRRRRRRYYYY Yhhy4 0sshhhfs",
"khffksfhfs0y Y YYY777Y7Y7YY7Y777Y777Y7Y777Y777YYY YhKfw whhFffff",
"sfffspshpyww Y YYY MMY Y 6Y YM MY M Y YM MYM MYYY YkFhy yfhFshsw",
"y0y0yywsy444 Y YYY @@Y Y A@ YY YY @AY YY YYY YYYY Ykhhy ypfy4440",
"ww4yw4ww4433 Y YYY DDY Y YY YY YY Y Y YY YYY YYYY Yhffp y443444f",
"%%%#%%%%%%%#%Y YYY:::Y:Y:YY:YY:YY:Y:Y:YY:YYY:YYYY Yfyph #%#%####",
"hfhfhfhshffffY YYYYYYYYYYYYYYYYYYYYYYYYYYYYYYYYYY Yfsff sfshwppp",
"hfhfhfhfhshffS YYYYYYY8888YYYY888888888888YYYYYSS Ssfpy yhffphsf",
"hsfshfhffhhaqV ZZZZZYY    YYYY            ZZZZZVC Cpsps pfhfffff",
"fhhfhfhffas0eV VCCVVCC    CCCC            VVVVVVC Vs0yy yhfffsfh",
"psypsspp4944eV CVVVVVC    VVCV      o    oVVVVVVC Vwy0s wpyps0fs",
"0wwp0w304e90eC CVVVVVC    VVCV    VCCCVVCCVVVVVVV Vhs4w 03334443",
" #%#%%%,%% %%C VVVVVVV    CVVC    CCVVVVVVVVVVVVV Vda40 #%,,<,,%",
" 0swssypy4 wyC CVVVVVV    CVVC    VCCCVVVVVVVVVVC Cfd44 4yffhfs4",
" pppsffpa9 9aV CVVVVVC    5555    55555555VVVVVVC Cad44 4pfhpss4",
" pffshfpe0 efV VVVVVVC                    VVVVVVV Cfy44 4shssfs4",
" phfppywy4 4eV CVVVVVV                    CVVVVVC Vp4y4 4yhff0p3",
" 0hwsfsyp3 0eV CVVVVVV========    ====    CVVVVVC V0yy4 3yhsfyw4",
" whpfpwyw4 0wC VVVVVVVVVVVCCVV    CVVC    VVVVVVV C0www 40ww4040",
" yfspypy44 ywC CVVVVVVVVVVVVCC    CVVC    VVVVVVC N,,,% %%,%%,%%",
" 0yw000444 04C CVVVVVVCCVVCCVV    VVVV    CVVZCCC n,,<<334 ,<<44",
" 344444444 44m mvVVZVV========    VVVV    CVVnvmv vyppppy0 wwspy",
"             n nvnnnvn            CCnn    nnvnnnn nhfppsp4 ywspw",
" 0404yywyyy4yv nnnnnvn            nnnn    nnnnnnn nfffphw4 yyppy",
" ww0wwpwpsypfn nnnnnnn::;;;;;:::;;nnnn::::nnnnnnn nfpwyp94 wyppy",
" 440p4340p40pn nnnnnnnnnnnnnnnnnnnnnnnnnnnnnnnnnn nyywryy4 0wsyw",
" 0wsp4043pypyv n>n>n>>n>>>n:>nn:::n>>>n>>n:vn>n>n n00yps44 94py0",
" 00yypw4444yyn n n n ln l n l=n l nl ln ln =n n n nw4y0044 ypf0y",
" 440440000000n n n n  n Xnn   n n nn nn  n n  n n ny394444 4ypp0",
" 4444344y0034n n+z+n zn n n z+n z nn nn zn nn nzn ny044440 w40yy",
" 00ww04404444n nn;nn--n-n-n--nn---nn;nn:-n-nn;n-n n40e0444 40pp0",
" 444444444444n nnnnnnnnnnnnnnnnnnnnnnnnnnnnnnnnnn n444444% 40404",
" ####%#######n nnnnnnnnnnnnnnnnnnnnnnnnnnnnnnnnnn n#####%  %####",
"3<<<<<< 4w099n BnnnnnnnnnnnnnnnvnnnnnnnnnnnnnnnnB n<<<3<<<<<<033",
"wpwpyw4 ypyprn oXXXXXXXXo Xooo oooo oXXoXoXX oooo n044y0pwswww0y",
"ypyswy4 0w444xxxcxxxxzxxccccxxxxxbbbxzxxbcccxxxzxxcwy0433y03yysw",
"yypyyy4 q044044404444 4440pw44 0epsp3 00pyr0444 404yyy330000ywp0",
"y0wwyw4 q444444444044 4wyy0444 4rwpw4 40p040444 4wy0wwyyywyywypp",
"ywywyw4 %%$$#$%%##%%$ 4w0ww444 weyp04 4yww44444 44w04yywwyyyywp0",
"0ypy044 1<<<<3<<<<1<< w04y0444 0ees44 4w0344444 43003044034y4000",
"4404444 40wywy4y00444 04044444 0yyy04 44444w044 44444404ywy40444",
"4404444 30000wy4y4444 44443p04 43wpw4 44000w044 44443ypp00ywywwy",
"0wwy034 44444044y4444 44wwyw44 4y0y04 4wwpwy044 30wywyyywwppwyyy",
"0p4yw44 4444444444444 40swpy04 40pw04 4sswypw44 0ypw4yww000w4ww0",
"yy0yy34 4444444444444 00000004 40s444 0w0000444 00w0400044004403",
"04w0034 4444444444444 44434444 400444 443444444 4404444444344444",
"4444344 4444444444444        o 444444   o     X 4444444444444444"
};
