/* XPM */
static char *_ccef0457ad44860967a057af2c5b4b7tqGuLHBLtHg25MCl[] = {
/* columns rows colors chars-per-pixel */
"64 97 256 2 ",
"   c #02040D",
".  c #090609",
"X  c #170A09",
"o  c #1A140C",
"O  c #010513",
"+  c #030915",
"@  c #0A0A15",
"#  c #02061A",
"$  c #040B1B",
"%  c #0A0D1C",
"&  c #0B0713",
"*  c #150D17",
"=  c #06111C",
"-  c #0B121D",
";  c #0A1917",
":  c #1C1214",
">  c #13121C",
",  c #181519",
"<  c #0A1508",
"1  c #27150C",
"2  c #271819",
"3  c #351B16",
"4  c #2D110B",
"5  c #17271B",
"6  c #0D201B",
"7  c #292419",
"8  c #322915",
"9  c #040C24",
"0  c #0A0E23",
"q  c #050D29",
"w  c #080F2B",
"e  c #0A0724",
"r  c #0B1323",
"t  c #0B122B",
"y  c #091627",
"u  c #131423",
"i  c #131A25",
"p  c #141B2B",
"a  c #1C1C2B",
"s  c #191727",
"d  c #091A33",
"f  c #161B33",
"g  c #150C24",
"h  c #261B28",
"j  c #2A1D2A",
"k  c #1B222C",
"l  c #162627",
"z  c #0B2437",
"x  c #192736",
"c  c #1D3539",
"v  c #1B3229",
"b  c #24232D",
"n  c #292729",
"m  c #382829",
"M  c #263527",
"N  c #37362A",
"B  c #232432",
"V  c #232B34",
"C  c #272A38",
"Z  c #352B35",
"A  c #263839",
"S  c #383639",
"D  c #431908",
"F  c #47291A",
"G  c #532D11",
"H  c #673914",
"J  c #452C28",
"K  c #493529",
"L  c #573729",
"P  c #452C35",
"I  c #473937",
"U  c #563936",
"Y  c #562A28",
"T  c #673827",
"R  c #6C3C32",
"E  c #2F4439",
"W  c #36401B",
"Q  c #4C4819",
"!  c #494639",
"~  c #594739",
"^  c #535030",
"/  c #794A28",
"(  c #674737",
")  c #754A38",
"_  c #69553A",
"`  c #78553A",
"'  c #6A4A2A",
"]  c #706D36",
"[  c #724F1A",
"{  c #1D3645",
"}  c #162D44",
"|  c #263A47",
" . c #383845",
".. c #263D53",
"X. c #272C40",
"o. c #463D44",
"O. c #553C40",
"+. c #2B4348",
"@. c #364647",
"#. c #2C4455",
"$. c #354A56",
"%. c #3B5356",
"&. c #3A5449",
"*. c #344D68",
"=. c #494648",
"-. c #594845",
";. c #47544A",
":. c #565548",
">. c #475957",
",. c #514F57",
"<. c #664945",
"1. c #665648",
"2. c #765644",
"3. c #6A534F",
"4. c #576658",
"5. c #4F6551",
"6. c #796649",
"7. c #79774A",
"8. c #796858",
"9. c #6C6E50",
"0. c #465B64",
"q. c #465C76",
"w. c #566766",
"e. c #556979",
"r. c #546D71",
"t. c #687875",
"y. c #737C76",
"u. c #6C7167",
"i. c #685B62",
"p. c #875837",
"a. c #865231",
"s. c #98683B",
"d. c #8E653D",
"f. c #AC713B",
"g. c #914F1F",
"h. c #885A48",
"j. c #8A594F",
"k. c #8A6648",
"l. c #986A47",
"z. c #9A734A",
"x. c #876A58",
"c. c #897657",
"v. c #987358",
"b. c #A7774A",
"n. c #A77A56",
"m. c #AD7349",
"M. c #8C776A",
"N. c #A27D65",
"B. c #7C8659",
"V. c #78867B",
"C. c #718370",
"Z. c #898856",
"A. c #8D8B54",
"S. c #B78656",
"D. c #B08A53",
"F. c #979A69",
"G. c #848A7B",
"H. c #8A967B",
"J. c #969C76",
"K. c #8D8B69",
"L. c #B88C65",
"P. c #AF916D",
"I. c #9CA370",
"U. c #A8A86B",
"Y. c #AAAA76",
"T. c #B4B378",
"R. c #C99A58",
"E. c #CB8D4F",
"W. c #D7A25B",
"Q. c #CEA25B",
"!. c #C99869",
"~. c #CA9A75",
"^. c #D5A768",
"/. c #D4A976",
"(. c #D2AA72",
"). c #E3AA63",
"_. c #E6B66B",
"`. c #E6BA77",
"'. c #E1A87B",
"]. c #E0A55F",
"[. c #EBC57B",
"{. c #BCC17F",
"}. c #556A8D",
"|. c #637A8F",
" X c #495E86",
".X c #3F5682",
"XX c #798986",
"oX c #7E928C",
"OX c #6A8C95",
"+X c #778E94",
"@X c #779598",
"#X c #6D8F94",
"$X c #6C919C",
"%X c #858C86",
"&X c #8C9384",
"*X c #87948A",
"=X c #939A8B",
"-X c #949887",
";X c #889694",
":X c #979C95",
">X c #908885",
",X c #A49E91",
"<X c #9BA38A",
"1X c #9CA39C",
"2X c #98A296",
"3X c #89A18B",
"4X c #A4A68A",
"5X c #B5B787",
"6X c #A3A494",
"7X c #A7A89A",
"8X c #B5B89A",
"9X c #AEB293",
"0X c #889BA2",
"qX c #9AA6A7",
"wX c #ABADA3",
"eX c #A5ABA7",
"rX c #ACB2A9",
"tX c #B3B4AC",
"yX c #B7B8A7",
"uX c #ACB4B4",
"iX c #BBBDB4",
"pX c #B5B9B6",
"aX c #ABAEAD",
"sX c #CFAE87",
"dX c #D3B799",
"fX c #BBC38F",
"gX c #BDC1AB",
"hX c #BCC2BA",
"jX c #C8CB97",
"kX c #ECC686",
"lX c #EAC898",
"zX c #F6D998",
"xX c #F2CD8F",
"cX c #FAE49C",
"vX c #C3C7AA",
"bX c #CBD2A8",
"nX c #C4C7B8",
"mX c #CED2B5",
"MX c #F5D9A6",
"NX c #F4D4AD",
"BX c #FAE7A9",
"VX c #FBEBB5",
"CX c #FCF2B9",
"ZX c #DAE3A8",
"AX c #B8BEC1",
"SX c #BEC7C4",
"DX c #C6CBC5",
"FX c #CCD2C9",
"GX c #D4D6C9",
"HX c #D7DCD6",
"JX c #CBD3D2",
"KX c #DDE2DA",
"LX c #FCF5C7",
"PX c #F6F1D3",
"IX c #E2E7E1",
"UX c #DAE2E3",
/* pixels */
"|.+X+X;X+X0XqX@X;X+X%X;X;X;XXXXXXXy.XXXXXXXX#X@X#X#X#X#XOXOXOX$X$X$X$X@XoXoXV.C.V.C.V.C.V.XXG.XX|.|.V.V.+XXXOX#X#X$X$X@X$X$XOXOX",
"t.#X+X;XoX;X0X@X+X%X%X;X;X;XXX%XXXXXXX|.XXXX+X;X@X+X+X+X#X#X#X@X@X@X@X@XoXoXV.H.G.%XV.XXXXV.|.XXH.&XXX%XoXXXXX#XoX@X@X@X@X@X$X$X",
"|.XX;X>X*X;X;X*X%X;X:X:X%X%X%X%XV.V.%XV.V.V.&X%XoXoXoXC.V.oXXXoX@XoXoX*X*X*X3X3X>X*X%X>XV.%XG.%X&X&XG.>X%XXX%X;X*X%X*X*X*XV.XXC.",
"y.*X:X:X:X:X:X;X;X;X;X:X>X:X-X%XG.G.V.G.G.G.&X&X=X=X&XG.*X%X%X*X2X*X*X&X=X&X-X<X:X:X:X=X=X:X>X&X&X>X-X&X>X;X;X1X3X=X&X3X3XH.C.C.",
"V.1XqXqXeX7XqX:XqXqXeXqX1X2X:X&X-XG.&XH.H.-X-X=X=X=X&X-X=X<X3X2X2X<X-X-X=XH.J.<X:X:X:X:X:X:X=X-X=X:X:X>X=X:X1XeX2X2X-X3X<XH.H.B.",
"|.1X:XqXqX:X1XeXuXaXaXaX1X:X=X=X<X-X-X-X-X-X-X6X=X=X=X<X2X2XwXwXwXwX6X,X-X-X=X=X,XeXaXeX,X:X:X,X6X,X:X,X:XeXqX1X2X2X<XH.J.H.H.B.",
"%X:XqX:X:X7XqXqXuXuXaXaXaXwXaX7X<X=X-X-X-X4X,X<X<X2X6X7X2X7X1X7XrXrXwX9X7X4X6X6XqXuXaXeXqX,X,X,X7X1X1X,X,X1XqX1X1X2X<X<XJ.J.F.B.",
"*X:XqXeX7XaXrXpXuXuXaXaXpXaXtX7X7X4X9X4X<X4X4X6X6XwXwX7XtXpXrX6X7XwXwXyX8X6X6XwXaXaXaXeX,X,X,X,X,X:X1XeXqX1XeX1X1X7X6XJ.J.I.F.H.",
"0XqXaXuXhXuXuXpXuXaXaXtXwXwX7XwXwX9X<X4X4X-X<X9XyXtXtXwXG.3.=.I I =.:.8.>X9X7X,XwXwXtXwX7X,X,X,XwX,X1XeXwX1XeX7XeXrX9XI.J.J.J.F.",
"0XqXuXSXSXaXeXrXpXuXtXaXwXwXtXiXyXyX9X7X9X4X9XwXyXtXM.m 3 m X X o : 2 2 8 ! K.yXwXyXyX7X,X,X,X,X6X,XwXaX6X7XyXwXrX8X8X4XI.I.F.F.",
"@XuXeXuXuXuXrXhXpXtXpXtXtXtXiXiXyXyX8X8X8X9XyXyXtXi.1 2 <.I 3 : : * & : n 2 1 u.yX8XyXwXwX7X,X7XtXtXaXpXwX9X8XwX9XfX9XY.Y.Y.U.K.",
"0XqXuXuXuXhXhXhXDXiXnXiXnXiXnXiXyX7X8XdXdXyXyXnX9.2 J L 2.F 8 1 o : : & . : o . 8.iXgXgXdXwX7XwXaXpXpXgXyXyX8X8X5X9X5X4X5XU.U.F.",
"+XuXSXSXSXpXDXSXSXnXnXiXiXnXnXiXgX8XdXyXyXnXDX-X1 K _ v.P.z.` ' 4 4 : & * @ , @ . >XnXiXiXtXtXwXtXiXiXiXgXvXgXfXfX5X9XY.Y.U.U.F.",
"%XaXSXJXDXSXJXDXnXnXiXiXnXDXFXnXyXyXtXgXnXFXDX=.~ P.lXMXMXxX(.L.d.L m : * % @ * . n aXDXDXSXAXtXtXiXiXiXgXmXyX8XyX9X5X5XY.U.U.D.",
"*XeXAXSXDXDXDXJXDXDXnXnXnXnXnXnXvXvXiXDXGXFXM.m P.lXPXLXLXCXxX[.S.d.~ 2 > $ @ > ,   u.JXDXAXAXDXnXnXnXnXhXgXgXgXgXgX9XT.(.U.U.I.",
"1XuXSXSXAXJXJXUXUXJXDXGXGXGXmXnXGXnXnXJXKXiX2 U dXVXLXLXCXCXcXxX^.b.' F 2 > % @ * + a pXJXAXSXDXDXDXmXFXgXvXGXmXmXgXfXfXT.U.Y.U.",
"eXhXHXSXDXSXUXUXIXKXHXKXGXGXDXFXGXnXnXKXKX>XX 2.sXBXVXVXVXBXcX[.Q.f./ L 7 , * @ @ @   *XDXaXnXgXyXnXmXiXhXgXhXmXmXmXjX{.{.T.{.U.",
"3XgXDXDXrXgXUXUXIXIXKXIXGXFXnXGXGXnXnXKXtX<.1 h.dXMXBXMXBXcXxX_.E.D.f.a.U 2 @ % @ &   =.;X:XwX:X7XiXyXiXgXgXgXbXmXbXjXjXT.U.{.T.",
"t.;X1X7XH.<XDXGXKXnXyXGXIXKXFXGXGXmXKXGXM.J 4 P.dXzXMXVXBXBXzXkX_.Q.R.D.2.m , * @ &   n y.y.V.V.7XrXeX7XgXgXbXbXgXbXfX{.{.U.U.{.",
"r.t.u.XXG.G.2XyX8X6X6XwXDXGXIXKXHXKXPXmXi.2 1 P.lXlXMXBXVXlX`.(.(.^.S.b._ 3 & @ + @ . a i.4.u.y.*XoX2XH.fXgXbXbXjXbXjX{.U.A.I.B.",
" .0.0.t.V.G.H.G.K.H.V.%X%X*XSXKXHXKXKX7X:.m 4 M.P.z.D.lXlXb.H k.z.d._ ' U 1 & + + @ . > =.;.w.y.C.OX@XV.3XfXbXjXfXZXZX{.U.F.B.] ",
"C >.0.t.y.y.G.u.u.u.4.u.t.%X%XHXKXIXGXG.=.Z 4 F H H H ^.(.H [ z.G D 4 G <.8 * - & + + @ @.;.@.w.r.C.C.5.C.<XbXbXfXZXfX{.U.U.B.B.",
"c 0.t.t.u.G.u.u.u.u.>.4.y.C.%XGXrX2XiX>XS m 1 2.n.a.[ `.~.H S.!./ / s.~.v.m * > @ + @ < E @.+.>.0.w.>.&.9.<XZXbXbXZX{.I.U.B.B.3X",
"{ q.e.|.e.|.u.u.u.w.>.0.w.w.t.=Xu.;.y.y.S 2 4 dXlX~./.xX/.s.^.`.^.(.`.(.k.3 & @ & @ % + V A @.>.r.0.%.5.5.H.bXbXfXfX{.U.U.B.B.B.",
"+.%.q.q.r.C.0.5.0.&.0.0.#.%.@.>.>.>.E ,.S X 3 sXlXNXlXNX'.n.kXzXBXzX`.n.` 2 & @ @ # @ $ k @.&.%.5.&.&.&.&.5.fXfXfX5X{.{.I.B.I.5.",
"..{ *.%.%.0.#.%.r.&.0.#.+.| | +.%.@.A o.Z h 4 P.lXNXlXNXsXn.'.xXxXkX!.s.L 1 & + @ & @ $ C >.r.r.r.r.r.r.5.r.3X3X3XI.I.B.B.B.B.] ",
"{ z ..$.+.#.%.0.r.0.*.%.+.+.@. .| c k k B j o x.lXlX'.NXsXz.~.kXkX^.m.) J * % - @ # $ $ k A +.>.r.r.r.r.#X3X$X3X3XB.B.5.5.B.B.v ",
"} z { *.#.#.%.#.%.*.r.%.$.$.$.| | x p s a j X ~ sXkX~.!.R G L.zX'.S.h.' m , @ & & # $ $ y y l x +.+.+.c +.&.r.5.5.&.&.E v M 5 5 ",
"z z } #.#.#.#.#.#.+.0.$.$.+.$.| A c x p u > & P v.L.NXn.D T S.!.S.b.h.U Z u @ $ @ $ % r z z c { c +.{ { +.+.c E E &.&.E W v 5 v ",
"z z z #.%.#.+.+.#.#.$.#. ...| | | l x p r h > 3 N.N.n.~.j.a.a.s.S.b.h.( m g @ @ @ + $ 9 6 z c +.+.+.{ c c c c E &.&.&.&.v v 5 5 ",
"z z { #.#.#.#.#.$.#.+.{ | | A { x c A V a B > * j.sXsXL.m.a.a.S.!.l.2.U j u $ @ @ + # 9 y z { { +.+.{ c c +.&.&.5.&.&.v v v 5 5 ",
"z z { ..+.{ +.+.{ { { | { { | | | | | C B u g & h x.sX~.b.l.l.l.l.2.U Z b g % 0 + + + # y c +.c c { { c c c c +.c v v c v v 6 v ",
"d z c { { | ..{ | X.....| #.#...$.$.$.| B h s h . : M.NXNXsXn.l.2.Y P n s 0 0 0 # O O + r C  .c A @.@.c v | E E c c +.+.E v 6 6 ",
"d z z z d | #...} } } } { ......| ..>. .B B f B g & 2 P.sXN.j.L J P m s g u g 0 % @ + + y x | +.@.&.+.E +.+.+.+.c E E c v v 6 l ",
"z z { c y c ......} } } { ..*.*.0. Xe. .f B g t @ &   X m m 3 j h h g g s > % g % $ # # $ y c c c A c c A A E A c v v c E c v 6 ",
"d z z y { z ..#...*.*.*.*.*. X}.}.|.|.$.s g g s % # &   : 3 : : X * h n j m s % @ $ # $ 9 y p x c A +.E v v v v 6 v v v v l v 6 ",
"z d d = } d { *.*.*.*..X X}.}.}.|.}.}.,.B u a s % # @   m 8.~ m 3 3 J L ~ I m * % @ # r r y X.A c A @.A V M M 5 5 M M M v ; 5 5 ",
"d z z z d } .....X X X}.}.}. X}.}.|.q.,.V i a u 0 $ @ . o P.N.` ~ ^ ( ] p.( J h * O & u r r x A &.w.&.>.;.&.;.E ^ 5.9.5.W v M 5 ",
"z z { ..*.*.*.q.q.*.0.#...q.e.q.e.e.0. .k u > u % r % & X v.D.A.d.d.s.s.b.d.U 3 : * % h r $ y l V A A ;.w.4.:.9.B.] ] E ! M 5 l ",
"z ..*.*.*. Xq.e.0.=.X. .+.d | #.} X.d x % $ @ @ % @ . 1 _ Z.Q.D.D.D.f.D.D.b.` 3 2 h s b % # $ + = l ; v M < 7 7.A.] ^ :.! 5 < < ",
"z #.$.*.#.q.%.>.>.S E S >.i = y ; k = ; = @ - * . o K c.T./.(.Q.E.R.Q.Q.Q.R.z.F 3 m m j % @ $ = i l 6 5 5 8 8 ] A.Q Q 5.&.5 < 6 ",
"y z $.#.} ..;.,.S M ! E S ; 6 + = x y $ $ - > X 2 6.P.(.kXlX[._._.`.[.[._.Q.f.Q 3 I P j - % % 0 k A E u.B.A.A.A.] ^ Q W W < 6 6 ",
"k V V l l &.:.! ! =.4.4.S < b l   k = % 0 > * o 6./.dXZXMXMXzXxXzXkXzX[._.R.f.G F O.P h & > 0 0 r k M ^ F.F.] ] ] ] Q Q W W 5 < ",
"l V Z n n :.! ^ ^ :.9.W M ; V V < k l r % * 4 K L.lXzXBXBXBXBXzXzXcXcX[._.Q.m.T L J J : & g > p r - 5 W ] 7.A.B.] 7.] ] B.^ M 5 ",
", A S ;.N ;.9.6._ 9.^ ! N n A Z l C p % * 2 F d.sXBXBXCXCXBXcXcXcXcXcX[.[._.s.H Y Y m & @ % C Z a a - N ! ^ ] ] ] Q ] ] Q Q W < ",
"k V Z =.n ! u.M.Z.9.9.^ W E ! E V - # % * U ` z.zXBXCXCXCXBXBXcXcXBXZXkX[.Q.s.H L K 7 . : N ,. . .a + u M ^ 9.7.A.] A.Z.A.A.] 8 ",
"a k N V , N ! :.K.K.7.9.~ N ! S @ % - . 7 x.n.(.BXBXCXLXCXCXCXBXBXBXcX[.[.Q.s./ Y F K K ~ _ 1.1.o.Z s @ < , 8 N ^ B.] 7.A.A.] Q ",
"B S S S S S N 1 8 6.c.7.1.^ N , @ r - . K P./.xXcXZXCXCXCXCXLXLXCXCXBXzX[.Q.s.[ G L _ k.K.N.M.8.=.S g % +   < o 1 8 8 8 Q Q Q Q ",
"B  .o.3.P I I N m ! _ ^ c.u.7 @ = - + * ( sXzXBXBXVXBXCXLXLXPXLXLXCXCXzX_.R.l.p.( 6.v.K.8.~ I n a u $ $ $ @ . , , o X 1 ~ 7.Z._ ",
"j  .I P P U -.I I ~ ~ ^ c.1.& % $ y % 2 K K.BXBXVXBXMXBXLXLXPXPXLXLXCXBX[.^.z.` 6.x.-.8 7 , * - $ $ # # # O O @ , * * : 1 K c.^ ",
"h o.J U R <.j.j.6.c.K.M.:., - = y k r Z ~ _ D.sXBXzXlXVXLXLXPXPXLXLXVXcX(.A.` ~ I 2 , , , ; $ + + O O O + O + + g h 1 X 1 2 1 o ",
"h P U 2.j.j.j.R ` 6._ I . + = $ y r k  .-.~ ~ ' k.z.P.MXLXLXPXPXLXCXMX!.] _ ! 2 , s u # + = = $ + O # + + O + @ * n m J h 2 h X ",
"g P <.R j.) R R ` ~ ! , > y r r r y  .=.=.I ! <.~ ' ' p.x.D.P.sXsX~.c._ ! I m s u @ 0 r a k p = + O O + + + + + . g m P j 2 j X ",
"g Z 3.R j.j.j.j.x.x.1.* > r 9 r = a  . . .C I I I ( 1.( _ ( ( ' _ ~ ~ ! m C - + $ # p X.A i i + O O   # # # + + & X * 2 : : j 2 ",
"e f O.Y R j.j.j.h.x.<.g 0 y % % $ k  .C S a X.n =.-.~ ~ -.-.~ I ! :.! n l % $ 9 0 f p  .k p - + > @ r $ O + + O & . : 4 2 * X * ",
"w e j P R R R Y T Y m % % 0 $ $ $ k f x a x p k =.=.;.! ! I N C I S k - = 9 0 r p f f x i b C =.S b b u $ + + + & & 2 P 2 3 X . ",
"w t j P Y Y Y Y Y U m > $ # $ $ = k p k y C p k X.S @.S N a M S V s @ + + # $ y p p y r k C ,.=.Z b B a = # $ + @ & : P I 3 .   ",
"t e o.-.2.) ( <.<.P s 9 $ # $ % = y y y y x y k x l V k p i A b b i $ + + + $ $ r $ % r V S =. .S S a - + + $ + @   . . X X .   ",
"0 b i.6.x.k.k.k.x.-.u % % # $ % 0 0 y y r p 0 r i r l i i V k V i   + + + $ $ % 0 # # B B  .=.o. .a + # # O + $ + .   o : : .   ",
"> o.8.x.c.c.c.c.x.m @ r $ $ $ $ = = = = r y = 0 r y = = k V V y = + + + + $ # $ $ $ i V b =.o.Z s O O O O +   = i @ + , N N , . ",
"C ,.i.8.8.6.M.8.1.* r % $ % $ $ $ = = + y y + = - $ + + k k y = - $ O + + # + $ $ 9 x C V  .C - + + O O   +   ; - @ O ; N N m , ",
"a C Z o.I =.-.I a % % r r y = $ + = + = ; ; + = - ; = i i i = r = + O   + # + # $ r x b i s % + $ + O + +     + ; @ +   > , , , ",
"w t B Z  .S V a = % $ r p k i + = $ $ $ + = + = = + = y i - y ; + + +   O + + + # - p $ + + # O % #   + + + +   & + +     @   O ",
"f X.X. .@.C a r y 9 % y k k l r = 9 = $ $ = + = + $ = ; i - y + + + + +   + + + + - i % $ $ $ $ % + + + + +   + @ + + + $ - % + ",
"t C X.| B r r r y 9 r p V V B p 0 0 9 $ = 9 = = + = $ 0 y i = + + = + + + + O + O - - O O O + % % # + +     + + + + + = y r $ + ",
"y f X.k $ = r r t p k x X.X.x y y t 9 9 9 = = 9 + + = k i + + + + + = +   < O   + + O O O O # $ # + O O   +   + + + + = = - - O ",
"t f f 0 - - r p f C a r k x a p p 9 y $ = $ $ + = = i l + + + + + + +   O +   + + +   O O + $ % = + + + +     + + # = = y y ; @ ",
"y x r r 0 r $ % p u $ % r r 0 0 r y 9 $ $ $ + + = - i + + + + # + + + + +   + + + O   O + $ $ - r r - + + +   + + = 9 9 0 = i & ",
"$ y 9 r y r % % u > * j b > + $ t 9 $ $ $ # + + ; = + + + + + + + +     +     # + O O O O # + $ + i y $ +   + + + = 9 9 % + ; @ ",
"$ $ $ % r $ s b o.=.S n n S V & % r # % - $ + + O + $ # + + + + + + + + + + O   O O # +   + r + $ + = +     +   + = 0 $ + @ - + ",
"= 9 9 r t 0 B Z o.I 2 I Z I b @ % @ +   + @ + @ # $ + + + + + # + # + + + + # O O # + + # # 0 9 - + + $ + +   + + + $ + +       ",
"9 # 0 r t r B b I I M.I =.~ I :.2 : m ! I 7 X . . @ @ + # # + + + + # # + $ + # + + + + # + # % r % + + +       + + + + +       ",
"9 $ 9 y q t B o.i.8.o.P -.I 3.! ~ P.NXNXlX~.z.T 1 . . . & # # # O + + + # + + O + + # + # # $ 0 r $ # + O O   O O + $ +         ",
"9 9 y y q t f =.,.Z =.i.m =.N K P.MXBXzXxXkX'.'.D.p.L o . . & + + + + + + + + O O O O + + $ $ $ % $ # # O O O   + + + O +       ",
"9 9 9 q q q f o.X.o.,.h N Z n ~ P.kXkXxXkX[.`._.^.^.'.D.D . .   & + O O   + O O O O O O # # $ @ $ + + + O O O   + + O O O       ",
"q 9 q q q w d x g ,.C B Z Z n ~ v.!./.(.^.`.`._.^.].W.R.D.k.F X . . +   + . O O O O     + + + & $ + # # O O O                   ",
"q q d q q q w d f X.u B C C B Z 1.K.m.S.S.!.)._._.).).].).'.R.h.8 4 .         @ & & . .       O + $ # # O O O O + +         O   ",
"q d d q d q w d f t 0 t 0 f p b m <.) p.f.E.E.].).].).).W.).[./.p.3 X X 1 n 2 X : I :.U Z Z n @ O $ # @ # O O O +               ",
"q q q q w t w q w w e 9 t t w p a 1 4 ' f.m.E.E.].E.E.].f.[ E.lX~.a.` ( 6.c.( ~ I L <.U J P Z B % O O # # O O O     <   +       ",
"q q 9 9 9 9 q q q q 9 9 t t r + 2 I h.h.h.f.m.f.E.f.E.E.E.g.4 a.n.m.H ' ' _ ~ K R J L 3.U h h h g + O O O O + +   +   O   +   . ",
"q 9 q 9 9 9 q 9 9 9 q 9 e e g <.M.v.sXL.a.a.l.f.f.m.f.g.m.sXg.D D ) a.R R Y J L U J 3 m O.Z h a s g O O O O O O +         O     ",
"9 q 9 # $ 9 9 9 9 9 9 9 # * 3.M.` l.!.!.m.T T p.a.m.!.f.H m.'.j.3 D Y ) O.Y j I P U I 2 * B a a a g O O O O O O +   +   + O   O ",
"9 e 9 9 9 $ 9 9 q 9 9 q e 2 3.U h.L.S./.!.d.Y T a.R m.~.f.D j.m.j.D 3 3 P m j j 2 Z o.h a g u $ g 0 O O O O O O       +     O . ",
"9 9 9 9 9 9 q 9 q q q q e j 3.3.N.p.m.^.n.v.R Y R ) Y a.sXj.D R j.<.3 h h * g B % g h * e p p e @ # O O O O &     +   + + + .   ",
"9 9 9 9 9 9 9 q w w q q e Z <.j.) / m.L.n.j.O.P j O.U J R j.Y 3 Y j.O.2 j 0 y r $ % > % $ 0 e $ # # #   O O O   O O   O O O     ",
"9 # 9 9 e 9 9 q 9 q w q t f o.O.R h.N.N.2.Y P j g g j j 2 3 P P 4 m ,.j % % 0 0 # e # + # $ # # # O O O O O O O O   . O   O   & ",
"9 9 9 9 9 9 e 9 q q q w d w j o.R x.N.O.j j h f g j f g B g g g s & * & # # + + # + # # # # O O # O O O O O O O O O O O         ",
"9 9 9 9 w q q q q q q q w w w f o.x.O.j g f f f f X.f f f X.f e % % # @ # # O + # # # O O O O # O O # O O O O O O . O O         ",
"9 9 9 q w w q e q q q w w q w e j ,.Z g t f f w e w 0 t w 9 $ # # # $ $ + + + # # # # # # O O O O # O O O & O O   O   O O       ",
"e 9 q q q w 9 9 w w w t q q w w g  .f f d d w t e w t t r e 9 % 9 % $ # + + O # # # # # # O # O O O O O     O O O O   & O       ",
"9 9 9 q q q q q q w w w q q w d g f t w q q w w w t 0 r e $ % $ # $ # + + # # + + # # e e # # # # # O O   O O O O +     & O     ",
"9 9 9 9 q q q q q q w w w q w w w w 9 q 9 e 9 9 e $ # # # # # # # # $ + + + + O O # O e # # # # O O O O O O O   . O O O @ O O   ",
"# 9 9 e e q q q q q q q q q q q w w e e 9 9 # # # # # # # # $ # # $ # $ + + + O O O O # # # # O O O O O   O   O . + O O @ O     ",
"9 9 9 9 q 9 q q q q w w q q e 9 w w q e # 9 9 0 e # # # # $ 9 # + # # $ # O   + + # # # # # O O O       O             O + O     ",
"9 9 9 9 9 q q e q q w w q q q 9 9 # 9 9 e $ 9 9 9 9 # # $ $ 9 # # # # # O O # # # # # # O O O O O   O       O           + O O   ",
"9 9 9 9 q q q q q w w w w w 9 9 9 9 9 # 9 9 0 9 t 9 9 9 9 $ 9 # # # + + + # # # # # # # # # O O O O O   O O   O O O     O O     ",
"q 9 q 9 q q q q q q q q w q q 9 9 q 9 q 9 9 q w t q q 9 9 9 9 9 # # $ $ $ $ $ 9 9 $ $ # # # # # O # O O O O O O O O     O O     "
};
